Coordinates
version=1
nRows=7
nColumns=40
inDegrees=yes

Units are S.I. units (second, meters, Newtons, ...)
Angles are in degrees.

endheader
time	pelvis_tilt	pelvis_list	pelvis_rotation	pelvis_tx	pelvis_ty	pelvis_tz	hip_flexion_r	hip_adduction_r	hip_rotation_r	knee_angle_r	knee_angle_r_beta	ankle_angle_r	subtalar_angle_r	mtp_angle_r	hip_flexion_l	hip_adduction_l	hip_rotation_l	knee_angle_l	knee_angle_l_beta	ankle_angle_l	subtalar_angle_l	mtp_angle_l	lumbar_extension	lumbar_bending	lumbar_rotation	arm_flex_r	arm_add_r	arm_rot_r	elbow_flex_r	pro_sup_r	wrist_flex_r	wrist_dev_r	arm_flex_l	arm_add_l	arm_rot_l	elbow_flex_l	pro_sup_l	wrist_flex_l	wrist_dev_l
     34.70250000	     -3.96129342	     -4.31425244	      7.12803533	      1.05615533	      0.92409561	      0.41420977	      2.95401410	     -0.39629783	    -15.31239515	     24.30425717	     24.30425717	     16.36816165	     -5.64982927	     -5.56358129	     25.32500369	     -5.29412587	     -1.61986095	     24.17657565	     24.17657565	      5.92850908	    -13.01481610	      0.84741087	     -8.26934573	      3.92066984	      3.63142817	     24.32706044	    -15.65283512	     -3.93123795	     67.98073623	     45.61318178	      0.00000000	      0.00000000	      0.57177816	    -10.51537958	     -0.26391950	     32.94869003	     45.26846796	      0.00000000	      0.00000000
     34.71571429	     -3.98901292	     -4.19261000	      6.87848887	      1.05659932	      0.92443122	      0.41167762	      4.12262935	     -1.06561139	    -14.75478207	     27.11952714	     27.11952714	     15.75746442	     -6.92295862	     -6.52619320	     24.86017216	     -5.15019701	     -1.97176405	     24.20461561	     24.20461561	      6.50056967	    -12.87584442	      0.59624571	     -8.14954152	      3.60900168	      3.87509250	     22.86960620	    -15.75090851	     -3.32669282	     65.73814223	     45.65724410	      0.00000000	      0.00000000	      1.44973396	    -10.63218093	     -0.32884482	     33.20933913	     45.29680252	      0.00000000	      0.00000000
     34.72892857	     -3.91924538	     -4.13972088	      6.66081843	      1.05693971	      0.92490499	      0.40909636	      5.11462809	     -1.57480373	    -14.11113113	     29.54566396	     29.54566396	     13.46702408	     -9.24314403	    -11.13614847	     24.34594442	     -5.08074156	     -2.31149507	     24.28138785	     24.28138785	      6.94224246	    -12.71641996	      0.36351962	     -8.08106336	      3.52047879	      2.99968989	     22.94794562	    -15.29806840	     -0.86860644	     60.49718193	     45.70719140	      0.00000000	      0.00000000	      1.70430504	    -10.92594180	     -0.84508849	     33.64310603	     45.42599768	      0.00000000	      0.00000000
     34.74214286	     -3.81953539	     -3.94848740	      6.39415694	      1.05714667	      0.92530153	      0.40658886	      6.48438826	     -2.38502192	    -13.60251419	     32.89443728	     32.89443728	     12.57335425	    -10.43118337	    -11.72378032	     23.72927259	     -4.87968572	     -2.72270763	     24.26955452	     24.26955452	      7.37088834	    -12.60003511	      0.09972706	     -8.25207926	      3.25052970	      3.09739540	     21.28227750	    -15.28058029	     -0.48912367	     59.10116531	     45.72951135	      0.00000000	      0.00000000	      2.59305565	    -11.10658417	     -0.94978104	     34.06777221	     45.45732894	      0.00000000	      0.00000000
     34.75535714	     -3.79064368	     -3.88123631	      6.11311799	      1.05717816	      0.92551288	      0.40426008	      8.04555015	     -2.93447060	    -12.76433704	     36.21977253	     36.21977253	     10.81438686	    -12.58669628	    -13.41735989	     23.25921379	     -4.81199839	     -3.12216384	     24.31431395	     24.31431395	      7.68636590	    -12.52780111	     -0.36041758	     -8.25512211	      3.14376643	      3.16507803	     20.23498636	    -15.22607286	      0.53360768	     55.65255456	     45.79025403	      0.00000000	      0.00000000	      3.47538883	    -11.25798683	     -0.95069105	     34.42289939	     45.48717528	      0.00000000	      0.00000000
     34.76857143	     -3.74202882	     -3.67936667	      5.83749151	      1.05707798	      0.92564878	      0.40192866	      9.75910533	     -3.76931400	    -12.22796253	     39.89057967	     39.89057967	      9.34409568	    -13.79076266	    -13.97716935	     22.72704169	     -4.58608261	     -3.49875679	     24.29988235	     24.29988235	      8.01937148	    -12.46399298	     -0.60860561	     -8.37385818	      2.88426819	      3.11390281	     18.66936673	    -15.06431810	      1.03482524	     54.03678207	     45.81400814	      0.00000000	      0.00000000	      4.29039182	    -11.50124447	     -1.02659068	     34.91630721	     45.51410481	      0.00000000	      0.00000000
     34.78178571	     -3.68695917	     -3.58639189	      5.56652195	      1.05681716	      0.92573200	      0.39980074	     11.54846138	     -4.37218309	    -11.51906240	     43.51256414	     43.51256414	      7.52334915	    -15.31991241	    -14.36245953	     22.26456311	     -4.47310815	     -3.76749133	     24.36507877	     24.36507877	      8.34187088	    -12.45883934	     -0.92238572	     -8.48382031	      2.73533741	      3.17851520	     17.29081853	    -14.98276825	      1.73485074	     51.51925320	     45.85968611	      0.00000000	      0.00000000	      5.20523700	    -11.66759237	     -1.01668978	     35.54207324	     45.53444403	      0.00000000	      0.00000000
